<?xml version="1.0" encoding="UTF-8" standalone="no"?>
<svg
   width="20"
   height="20"
   viewBox="0 0 20 20"
   fill="none"
   version="1.1"
   id="svg1821"
   sodipodi:docname="copy.svg"
   inkscape:version="1.2.2 (b0a84865, 2022-12-01)"
   xmlns:inkscape="http://www.inkscape.org/namespaces/inkscape"
   xmlns:sodipodi="http://sodipodi.sourceforge.net/DTD/sodipodi-0.dtd"
   xmlns="http://www.w3.org/2000/svg"
   xmlns:svg="http://www.w3.org/2000/svg">
  <defs
     id="defs1825" />
  <sodipodi:namedview
     id="namedview1823"
     pagecolor="#ffffff"
     bordercolor="#000000"
     borderopacity="0.25"
     inkscape:showpageshadow="2"
     inkscape:pageopacity="0.0"
     inkscape:pagecheckerboard="0"
     inkscape:deskcolor="#d1d1d1"
     showgrid="false"
     inkscape:zoom="11.8"
     inkscape:cx="9.9576271"
     inkscape:cy="10"
     inkscape:window-width="1309"
     inkscape:window-height="456"
     inkscape:window-x="0"
     inkscape:window-y="38"
     inkscape:window-maximized="0"
     inkscape:current-layer="svg1821" />
  <path
     id="rect1817"
     style="color:#000000;fill:#339cec;-inkscape-stroke:none"
     d="M 7 3.25 C 6.0434749 3.25 5.25 4.0434749 5.25 5 L 5.25 15 C 5.25 15.956525 6.0434749 16.75 7 16.75 L 15 16.75 C 15.956525 16.75 16.75 15.956525 16.75 15 L 16.75 5 C 16.75 4.0434749 15.956525 3.25 15 3.25 L 7 3.25 z M 7 4.75 L 15 4.75 C 15.151473 4.75 15.25 4.8485272 15.25 5 L 15.25 15 C 15.25 15.151473 15.15147 15.25 15 15.25 L 7 15.25 C 6.8485274 15.25 6.75 15.151473 6.75 15 L 6.75 5 C 6.75 4.8485274 6.8485274 4.75 7 4.75 z M 3 6.25 A 0.75 0.75 0 0 0 2.25 7 L 2.25 14.199219 C 2.25 15.879415 2.2110635 16.825474 2.6582031 17.703125 C 3.0176901 18.408675 3.591358 18.982345 4.296875 19.341797 C 5.1745196 19.789009 6.1206246 19.75 7.8007812 19.75 L 14 19.75 A 0.75 0.75 0 0 0 14.75 19 A 0.75 0.75 0 0 0 14 18.25 L 7.8007812 18.25 C 6.1206246 18.25 5.3843284 18.210692 4.9785156 18.003906 C 4.5550549 17.788159 4.2118456 17.444932 3.9960938 17.021484 C 3.7892749 16.615539 3.75 15.879415 3.75 14.199219 L 3.75 7 A 0.75 0.75 0 0 0 3 6.25 z " />
</svg>
