<?xml version="1.0" encoding="UTF-8" standalone="no"?>
<svg
   width="18"
   height="18"
   viewBox="0 0 18 18"
   fill="none"
   version="1.1"
   id="svg134"
   sodipodi:docname="receive_button.svg"
   inkscape:version="1.2.2 (b0a84865, 2022-12-01)"
   xmlns:inkscape="http://www.inkscape.org/namespaces/inkscape"
   xmlns:sodipodi="http://sodipodi.sourceforge.net/DTD/sodipodi-0.dtd"
   xmlns="http://www.w3.org/2000/svg"
   xmlns:svg="http://www.w3.org/2000/svg">
  <defs
     id="defs138" />
  <sodipodi:namedview
     id="namedview136"
     pagecolor="#ffffff"
     bordercolor="#000000"
     borderopacity="0.25"
     inkscape:showpageshadow="2"
     inkscape:pageopacity="0.0"
     inkscape:pagecheckerboard="0"
     inkscape:deskcolor="#d1d1d1"
     showgrid="false"
     inkscape:zoom="13.111111"
     inkscape:cx="8.5805085"
     inkscape:cy="9"
     inkscape:window-width="1309"
     inkscape:window-height="456"
     inkscape:window-x="0"
     inkscape:window-y="38"
     inkscape:window-maximized="0"
     inkscape:current-layer="svg134" />
  <g
     id="path132"
     style="fill:#bababa;fill-opacity:1">
    <path
       style="color:#000000;fill:#bababa;stroke-width:2;stroke-linecap:round;stroke-linejoin:round;-inkscape-stroke:none;fill-opacity:1"
       d="m 13,4.5 -9,9 m 0,0 v -9 m 0,9 h 9"
       id="path1228" />
    <path
       style="color:#000000;fill:#bababa;stroke-linecap:round;stroke-linejoin:round;-inkscape-stroke:none;fill-opacity:1"
       d="m 4,3.5 a 1,1 0 0 0 -1,1 v 9 A 1,1 0 0 0 3.2929688,14.207031 1,1 0 0 0 4,14.5 h 9 a 1,1 0 0 0 1,-1 1,1 0 0 0 -1,-1 H 6.4140625 L 13.707031,5.2070312 a 1,1 0 0 0 0,-1.4140624 1,1 0 0 0 -1.414062,0 L 5,11.085938 V 4.5 a 1,1 0 0 0 -1,-1 z"
       id="path1230" />
  </g>
</svg>
